<svg height="500pt" preserveAspectRatio="xMidYMid meet" viewBox="0 0 500 500" width="500pt" xmlns="http://www.w3.org/2000/svg"><g transform="matrix(.1 0 0 -.1 0 500)"><path d="m1280 3440c-244-25-445-76-605-155-188-93-303-207-345-342-23-74-24-110-9-219 43-310 281-570 740-807 285-148 583-246 954-312 77-14 142-25 143-25 2 0-18-17-45-39-68-54-118-114-131-160-13-41-16-104-6-114 3-3 45 25 92 63 91 75 223 148 311 174 35 10 93 16 163 16 60 0 118 5 129 10 21 12 71 104 87 163 9 33 8 40-11 61-12 13-98 65-191 115-93 51-227 130-298 178-121 81-129 85-147 69-22-20-44-90-36-116 3-10 52-58 107-107 77-67 97-89 82-91-11-1-105 13-209 33-684 129-1234 362-1510 640-110 110-151 182-142 250 17 118 123 239 284 322 203 105 435 161 823 198 91 8 180 18 198 21 40 8 66 45 76 106 11 71 5 73-222 74-108 1-235-2-282-6z"/><path d="m1170 2651 25-7 3-182 2-182h-24c-14 0-28-4-31-10-9-14 184-13 240 1 53 13 122 70 141 116 20 46 17 117-5 161-45 87-105 112-265 111-61-1-100-4-86-8zm180-11c43-12 93-62 109-109 19-59 13-112-19-168-23-41-38-54-73-68-24-9-57-15-73-13l-29 3 2 170c2 94 5 176 8 183 5 15 28 15 75 2z"/><path d="m1624 2645c-21-15-12-45 16-52 11-3 20-10 20-15 0-11-50-58-61-58-5 0-9-4-9-10 0-5 8-10 18-10 50 0 101 78 81 124-14 29-42 39-65 21z"/><path d="m1854 2636c-72-33-107-82-112-156-10-132 65-220 188-220 62 0 95 16 143 69 66 73 70 171 10 250-28 36-112 81-153 81-14 0-48-11-76-24zm127-23c67-57 90-181 50-269-63-138-201-69-218 109-4 51-2 70 17 110 37 78 95 97 151 50z"/><path d="m2190 2652c0-6 10-12 23-14 22-3 22-5 23-168 1-91-1-171-3-177-3-7-16-13-28-13-13 0-27-4-30-10-4-6 28-10 89-10 57 0 96 4 96 10s-16 10-35 10h-35v80c0 91 5 98 67 83 31-7 39-14 41-36 2-15 8-27 13-27s9 36 9 80c0 78-16 112-22 48-3-32-5-33-49-36-45-3-47-2-51 28-3 17-3 55 0 85l4 55h58c61 0 73-8 103-65l16-30 1 53v52h-114c-62 0-128 3-145 6-19 4-31 2-31-4z"/><path d="m2530 2648c0-3 10-8 23-10 22-3 22-5 25-180l2-178h-24c-14 0-28-4-31-10-4-6 28-10 90-10s94 4 90 10c-3 6-19 10-36 10h-29v85c0 94-1 93 69 79 26-6 31-11 31-35 0-18 5-29 14-29 11 0 13 16 10 77-3 79-20 111-26 51-3-32-5-33-51-36l-48-3 3 83 3 83 44 3c67 5 85-3 111-50l25-43 3 49c2 26 2 49 0 51-7 6-298 10-298 3z"/><path d="m2938 2653c-43-2-78-8-78-13 0-6 14-10 30-10h30v-179c0-178 0-180-22-184-13-2 15-4 62-5 69 0 79 2 55 10l-30 9 3 167c1 92 5 173 7 180 2 6 14 12 25 12 12 0 18 5 15 10-3 6-9 9-13 8s-42-4-84-5z"/><path d="m3215 2642c-66-32-104-80-114-144-16-96 16-176 85-215 51-30 126-31 173-2 18 11 40 18 47 15 9-4 14 2 14 17 0 12 3 32 6 45 8 27-12 30-21 3-3-10-17-31-30-45-51-56-157-22-191 61-31 73-12 176 42 222 59 52 131 35 169-40 24-45 35-35 35 34-1 52-3 59-13 46-11-15-16-15-40-2-47 24-117 26-162 5z"/><path d="m3490 2651c0-5 12-11 28-13l27-3 3-177c2-171 2-178-17-178-17 0-39-17-30-24 2-1 78 1 169 4l165 5 3 48c2 26 1 47-1 47-3 0-17-20-32-45l-26-46-82 3-82 3-3 81-3 81 48 6c58 6 63 4 63-34 0-20 4-29 13-26 12 4 12 10 9 107-2 56-19 68-24 18-3-32-4-33-55-36l-53-3v85 86h65c64 0 65 0 91-40 15-22 28-40 30-40s4 23 4 50v50h-155c-89 0-155-4-155-9z"/><path d="m4095 2478c-3-7-4-26-2-43 2-29 0-30-43-35-32-4-46-10-48-22-3-14 6-17 45-20l48-3 3-42c2-31 8-43 18-43 12 0 15 10 12 43l-3 42 48 3c39 3 47 6 47 23 0 16-7 19-45 19-43 0-45 1-45 29 0 51-23 82-35 49z"/><path d="m2047 1033c-4-3-7-17-7-30 0-20-3-22-19-14-14 8-25 6-45-10-22-17-26-28-24-58 3-38 29-54 52-31 8 9 6 11-9 8-17-2-20 3-20 31 0 39 26 64 46 44 10-10 10-18 1-38-8-17-9-32-3-42 10-19 13-13 31 80 11 57 10 74-3 60z"/><path d="m2155 1028c-2-7-10-43-17-79l-14-66 37-1c29-1 42 4 53 20 33 47 10 111-32 89-16-9-18-7-14 20 4 29-5 41-13 17zm55-77c0-50-50-81-58-37-5 22 24 66 43 66 10 0 15-10 15-29z"/><path d="m2575 1031c-3-5-1-12 5-16 5-3 10 1 10 9 0 18-6 21-15 7z"/><path d="m2730 1024c0-8 5-12 10-9 6 4 8 11 5 16-9 14-15 11-15-7z"/><path d="m1276 961c-19-82-19-81-7-81 5 0 11 14 15 30 4 23 11 30 29 30 34 0 61 33 53 65-5 21-12 25-40 25-34 0-34 0-50-69zm69 29c0-20-6-26-27-28-22-3-27 0-23 12 3 9 7 23 10 32 8 25 40 12 40-16z"/><path d="m2419 955-15-75h27c60 0 99 38 99 95 0 33-26 55-64 55-31 0-32 0-47-75zm72 55c41-22 12-110-37-110-28 0-28 1-13 70 11 52 17 57 50 40z"/><path d="m1422 989c-51-19-49-109 2-109 30 0 56 34 56 72 0 33-26 49-58 37zm36-45c3-34-17-58-42-48-18 7-21 36-5 65 15 30 43 20 47-17z"/><path d="m1679 979c-14-14-19-30-17-57 3-34 6-37 36-40 19-2 32 1 32 8s-8 9-19 5c-10-3-24 1-31 10-15 18-15 18 25 31 32 10 45 41 23 55-19 13-26 11-49-12zm46-9c3-6-4-14-17-19-29-11-35-6-18 14 14 17 26 19 35 5z"/><path d="m1810 991c-8-6-17-8-21-5-9 5-15-14-25-71-8-48 7-39 21 13 6 22 19 41 33 47 12 5 22 13 22 17 0 11-12 10-30-1z"/><path d="m1873 985c-26-19-39-70-23-90 15-18 56-20 66-3 5 8 2 9-9 5-21-8-47 1-47 17 0 7 15 16 32 21 35 11 50 42 26 56-18 12-20 11-45-6zm37-19c0-7-9-16-20-19-19-5-28 12-13 26 11 12 33 7 33-7z"/><path d="m2810 990c-7-4-19-6-26-3-8 3-16-13-23-47-13-61-13-60-2-60 5 0 12 15 15 33 8 44 29 72 49 64 12-5 14-13 6-48-9-39-6-59 6-47 3 3 8 28 12 55 6 52-8 71-37 53z"/><path d="m2899 979c-14-14-19-30-17-57 3-34 6-37 36-40 19-2 32 1 32 8s-8 9-19 5c-10-3-24 1-31 10-15 18-15 18 25 31 32 10 45 41 23 55-19 13-26 11-49-12zm46-9c3-6-4-14-17-19-29-11-35-6-18 14 14 17 26 19 35 5z"/><path d="m1500 966c0-36 12-86 20-86 4 0 15 19 26 42l19 42 8-42c4-23 11-42 16-42 4 0 19 25 34 55s22 55 16 55c-5 0-18-19-29-42l-19-43v43c-1 27-5 42-14 42-7 0-23-19-34-42l-22-43v43c-1 23-5 42-11 42-5 0-10-11-10-24z"/><path d="m2255 953c3-21 8-48 11-60 3-15-4-28-22-42-25-19-25-21-6-21 15 0 31 19 61 74 23 40 41 77 41 80 0 16-21-7-39-42l-20-37-7 43c-3 23-11 42-16 42s-6-17-3-37z"/><path d="m2566 978c-15-48-23-98-16-98 10 0 16 18 26 73 6 34-2 53-10 25z"/><path d="m2604 959c3-17 6-42 6-55 0-41 28-27 56 27 14 28 23 53 20 56-5 6-46-56-46-70 0-5-4-5-10-2-5 3-10 22-10 41s-5 34-11 34c-8 0-9-11-5-31z"/><path d="m2716 973c-13-45-18-98-8-88 13 13 32 105 21 105-4 0-10-8-13-17z"/></g></svg>